<?xml version="1.0" encoding="UTF-8" standalone="no"?>
<!-- Created with Inkscape (http://www.inkscape.org/) -->

<svg
   version="1.1"
   id="svg2"
   xml:space="preserve"
   width="200.0304"
   height="242.18799"
   viewBox="0 0 200.0304 242.18799"
   sodipodi:docname="t-channel_general.svg"
   inkscape:version="1.1.2 (0a00cf5339, 2022-02-04)"
   xmlns:inkscape="http://www.inkscape.org/namespaces/inkscape"
   xmlns:sodipodi="http://sodipodi.sourceforge.net/DTD/sodipodi-0.dtd"
   xmlns="http://www.w3.org/2000/svg"
   xmlns:svg="http://www.w3.org/2000/svg"
   xmlns:rdf="http://www.w3.org/1999/02/22-rdf-syntax-ns#"
   xmlns:cc="http://creativecommons.org/ns#"
   xmlns:dc="http://purl.org/dc/elements/1.1/"><metadata
     id="metadata8"><rdf:RDF><cc:Work
         rdf:about=""><dc:format>image/svg+xml</dc:format><dc:type
           rdf:resource="http://purl.org/dc/dcmitype/StillImage" /><dc:title /></cc:Work></rdf:RDF></metadata><defs
     id="defs6"><clipPath
       clipPathUnits="userSpaceOnUse"
       id="clipPath20"><path
         d="m 73.32,109.594 h 58 v 58 h -58 z"
         id="path18"
         inkscape:connector-curvature="0" /></clipPath><clipPath
       clipPathUnits="userSpaceOnUse"
       id="clipPath30"><path
         d="M 0,0 H 151 V 182 H 0 Z"
         id="path28"
         inkscape:connector-curvature="0" /></clipPath><clipPath
       clipPathUnits="userSpaceOnUse"
       id="clipPath40"><path
         d="m 74,110 h 58 v 58 H 74 Z"
         id="path38"
         inkscape:connector-curvature="0" /></clipPath><clipPath
       clipPathUnits="userSpaceOnUse"
       id="clipPath46"><path
         d="m 74.234,110.953 56.368,56.367 0.414,-0.414 -56.575,-56.574 -0.414,0.414 z"
         id="path44"
         inkscape:connector-curvature="0" /></clipPath><clipPath
       clipPathUnits="userSpaceOnUse"
       id="clipPath56"><path
         d="M 0,0 H 151 V 182 H 0 Z"
         id="path54"
         inkscape:connector-curvature="0" /></clipPath><clipPath
       clipPathUnits="userSpaceOnUse"
       id="clipPath66"><path
         d="m 73.32,109.594 h 58 v 58 h -58 z"
         id="path64"
         inkscape:connector-curvature="0" /></clipPath><clipPath
       clipPathUnits="userSpaceOnUse"
       id="clipPath76"><path
         d="M 0,0 H 151 V 182 H 0 Z"
         id="path74"
         inkscape:connector-curvature="0" /></clipPath><clipPath
       clipPathUnits="userSpaceOnUse"
       id="clipPath88"><path
         d="m 98.32,134.594 h 7 v 7 h -7 z"
         id="path86"
         inkscape:connector-curvature="0" /></clipPath><clipPath
       clipPathUnits="userSpaceOnUse"
       id="clipPath98"><path
         d="M 0,0 H 151 V 182 H 0 Z"
         id="path96"
         inkscape:connector-curvature="0" /></clipPath><clipPath
       clipPathUnits="userSpaceOnUse"
       id="clipPath108"><path
         d="m 98,135 h 7 v 6 h -7 z"
         id="path106"
         inkscape:connector-curvature="0" /></clipPath><clipPath
       clipPathUnits="userSpaceOnUse"
       id="clipPath114"><path
         d="m 104.59,140.895 -5.793,-2.485 2.484,-0.824 0.824,-2.484 z"
         id="path112"
         inkscape:connector-curvature="0" /></clipPath><clipPath
       clipPathUnits="userSpaceOnUse"
       id="clipPath124"><path
         d="M 0,0 H 151 V 182 H 0 Z"
         id="path122"
         inkscape:connector-curvature="0" /></clipPath><clipPath
       clipPathUnits="userSpaceOnUse"
       id="clipPath134"><path
         d="m 98.32,134.594 h 7 v 7 h -7 z"
         id="path132"
         inkscape:connector-curvature="0" /></clipPath><clipPath
       clipPathUnits="userSpaceOnUse"
       id="clipPath144"><path
         d="M 0,0 H 151 V 182 H 0 Z"
         id="path142"
         inkscape:connector-curvature="0" /></clipPath><clipPath
       clipPathUnits="userSpaceOnUse"
       id="clipPath156"><path
         d="m 97.32,133.594 h 8 v 8 h -8 z"
         id="path154"
         inkscape:connector-curvature="0" /></clipPath><clipPath
       clipPathUnits="userSpaceOnUse"
       id="clipPath166"><path
         d="M 0,0 H 151 V 182 H 0 Z"
         id="path164"
         inkscape:connector-curvature="0" /></clipPath><clipPath
       clipPathUnits="userSpaceOnUse"
       id="clipPath176"><path
         d="m 97,134 h 9 v 8 h -9 z"
         id="path174"
         inkscape:connector-curvature="0" /></clipPath><clipPath
       clipPathUnits="userSpaceOnUse"
       id="clipPath182"><path
         d="m 104.707,140.625 -5.793,-2.484 -0.117,0.269 0.094,0.278 2.48,-0.825 0.141,-0.047 0.047,-0.14 0.828,-2.481 -0.282,-0.093 -0.265,0.117 2.48,5.789 0.27,-0.113 z m 0.152,0.152 -2.484,-5.789 -0.301,-0.707 -1.07,3.211 0.277,0.094 -0.093,-0.281 -2.481,0.828 -0.73,0.246 0.707,0.301 5.789,2.484 0.672,0.285 z"
         id="path180"
         inkscape:connector-curvature="0" /></clipPath><clipPath
       clipPathUnits="userSpaceOnUse"
       id="clipPath192"><path
         d="M 0,0 H 151 V 182 H 0 Z"
         id="path190"
         inkscape:connector-curvature="0" /></clipPath><clipPath
       clipPathUnits="userSpaceOnUse"
       id="clipPath202"><path
         d="m 97.32,133.594 h 8 v 8 h -8 z"
         id="path200"
         inkscape:connector-curvature="0" /></clipPath><clipPath
       clipPathUnits="userSpaceOnUse"
       id="clipPath212"><path
         d="M 0,0 H 151 V 182 H 0 Z"
         id="path210"
         inkscape:connector-curvature="0" /></clipPath><clipPath
       clipPathUnits="userSpaceOnUse"
       id="clipPath224"><path
         d="M 0,0 H 58 V 60 H 0 Z"
         id="path222"
         inkscape:connector-curvature="0" /></clipPath><clipPath
       clipPathUnits="userSpaceOnUse"
       id="clipPath234"><path
         d="M 0,0 H 151 V 182 H 0 Z"
         id="path232"
         inkscape:connector-curvature="0" /></clipPath><clipPath
       clipPathUnits="userSpaceOnUse"
       id="clipPath244"><path
         d="M 0,0 H 58 V 60 H 0 Z"
         id="path242"
         inkscape:connector-curvature="0" /></clipPath><clipPath
       clipPathUnits="userSpaceOnUse"
       id="clipPath250"><path
         d="m 57.305,57.527 c -1.446,0.602 -2.563,1.016 -3.387,1.207 -0.391,0.09 -0.711,0.129 -0.957,0.11 -0.207,-0.012 -0.352,-0.063 -0.445,-0.156 -0.094,-0.094 -0.145,-0.239 -0.157,-0.446 -0.019,-0.25 0.02,-0.566 0.11,-0.957 0.191,-0.824 0.605,-1.941 1.207,-3.387 0.613,-1.476 1.039,-2.625 1.238,-3.48 0.102,-0.449 0.145,-0.824 0.125,-1.129 -0.027,-0.348 -0.137,-0.625 -0.332,-0.82 -0.191,-0.192 -0.469,-0.301 -0.816,-0.328 -0.309,-0.02 -0.684,0.023 -1.129,0.129 -0.86,0.195 -2.004,0.621 -3.481,1.234 -1.445,0.601 -2.562,1.016 -3.386,1.207 -0.391,0.09 -0.707,0.129 -0.957,0.113 -0.208,-0.015 -0.352,-0.066 -0.446,-0.16 -0.094,-0.094 -0.144,-0.238 -0.156,-0.445 -0.02,-0.246 0.019,-0.567 0.109,-0.957 0.192,-0.824 0.606,-1.942 1.207,-3.387 0.614,-1.473 1.039,-2.621 1.235,-3.48 0.105,-0.446 0.148,-0.821 0.129,-1.129 -0.024,-0.348 -0.137,-0.625 -0.328,-0.817 -0.196,-0.195 -0.469,-0.304 -0.821,-0.328 -0.305,-0.023 -0.679,0.02 -1.129,0.125 -0.855,0.195 -2.004,0.621 -3.48,1.234 -1.446,0.602 -2.563,1.016 -3.387,1.208 -0.391,0.089 -0.707,0.128 -0.957,0.113 -0.207,-0.016 -0.352,-0.067 -0.445,-0.16 -0.094,-0.094 -0.145,-0.239 -0.157,-0.446 -0.019,-0.246 0.02,-0.566 0.114,-0.957 0.187,-0.824 0.601,-1.941 1.203,-3.386 0.617,-1.473 1.039,-2.622 1.238,-3.477 0.102,-0.449 0.145,-0.824 0.125,-1.133 -0.023,-0.347 -0.133,-0.621 -0.328,-0.816 -0.195,-0.196 -0.469,-0.305 -0.816,-0.328 -0.309,-0.024 -0.684,0.019 -1.133,0.125 -0.856,0.199 -2.004,0.621 -3.481,1.234 -1.441,0.605 -2.558,1.016 -3.382,1.207 -0.395,0.09 -0.711,0.129 -0.961,0.113 -0.207,-0.015 -0.348,-0.066 -0.446,-0.16 -0.093,-0.094 -0.14,-0.234 -0.156,-0.441 -0.019,-0.25 0.02,-0.571 0.113,-0.961 0.188,-0.824 0.602,-1.942 1.203,-3.383 0.618,-1.477 1.04,-2.625 1.239,-3.48 0.101,-0.45 0.148,-0.825 0.125,-1.133 -0.024,-0.348 -0.133,-0.621 -0.328,-0.817 -0.196,-0.195 -0.469,-0.304 -0.817,-0.328 -0.308,-0.023 -0.683,0.02 -1.133,0.125 -0.855,0.199 -2.003,0.621 -3.48,1.239 -1.441,0.601 -2.559,1.015 -3.383,1.203 -0.39,0.089 -0.711,0.129 -0.961,0.113 -0.207,-0.016 -0.347,-0.063 -0.441,-0.16 -0.094,-0.094 -0.145,-0.235 -0.16,-0.442 -0.016,-0.25 0.023,-0.57 0.113,-0.961 0.187,-0.82 0.601,-1.941 1.203,-3.382 0.617,-1.477 1.039,-2.625 1.238,-3.481 0.106,-0.449 0.149,-0.824 0.125,-1.133 -0.023,-0.347 -0.133,-0.621 -0.328,-0.816 -0.195,-0.195 -0.469,-0.305 -0.816,-0.328 -0.309,-0.02 -0.684,0.023 -1.133,0.125 -0.856,0.199 -2.004,0.621 -3.477,1.238 -1.445,0.602 -2.562,1.016 -3.386,1.207 -0.391,0.09 -0.711,0.129 -0.957,0.109 -0.211,-0.015 -0.352,-0.062 -0.446,-0.156 -0.093,-0.094 -0.144,-0.238 -0.16,-0.445 -0.015,-0.25 0.024,-0.567 0.113,-0.961 0.192,-0.824 0.606,-1.941 1.207,-3.383 0.614,-1.476 1.04,-2.625 1.235,-3.48 C 14.902,9.855 14.945,9.48 14.922,9.176 14.898,8.828 14.789,8.551 14.594,8.355 14.398,8.164 14.125,8.051 13.777,8.027 13.469,8.008 13.094,8.051 12.645,8.152 11.789,8.352 10.641,8.773 9.168,9.391 7.723,9.992 6.605,10.406 5.781,10.598 5.391,10.688 5.07,10.727 4.824,10.707 4.617,10.691 4.473,10.645 4.379,10.551 4.285,10.457 4.234,10.312 4.219,10.105 4.203,9.855 4.242,9.539 4.332,9.148 4.523,8.324 4.938,7.207 5.539,5.762 6.152,4.285 6.574,3.137 6.773,2.281 6.879,1.832 6.922,1.457 6.898,1.152 6.875,0.805 6.766,0.527 6.57,0.332 6.379,0.141 6.102,0.027 5.754,0.004 5.445,-0.016 5.07,0.027 4.625,0.133 3.766,0.328 2.621,0.754 1.145,1.367 L 0.875,1.48 1.098,2.02 1.371,1.906 C 2.812,1.305 3.93,0.891 4.754,0.703 5.145,0.609 5.465,0.57 5.715,0.59 5.922,0.602 6.062,0.652 6.156,0.746 6.254,0.84 6.301,0.984 6.316,1.191 6.332,1.441 6.293,1.758 6.203,2.148 6.016,2.973 5.602,4.09 5,5.535 4.383,7.012 3.961,8.16 3.762,9.016 3.656,9.465 3.613,9.84 3.637,10.145 3.66,10.496 3.77,10.77 3.965,10.965 4.16,11.156 4.434,11.266 4.781,11.293 5.09,11.312 5.465,11.27 5.914,11.168 6.77,10.969 7.918,10.547 9.391,9.93 c 1.445,-0.602 2.562,-1.016 3.386,-1.207 0.391,-0.09 0.711,-0.129 0.961,-0.11 0.207,0.012 0.348,0.063 0.442,0.157 0.093,0.093 0.144,0.238 0.16,0.445 0.015,0.25 -0.024,0.566 -0.113,0.957 -0.192,0.824 -0.602,1.941 -1.207,3.387 -0.614,1.472 -1.036,2.625 -1.235,3.48 -0.105,0.449 -0.148,0.824 -0.125,1.129 0.024,0.348 0.133,0.625 0.328,0.816 0.192,0.196 0.469,0.305 0.817,0.332 0.308,0.02 0.683,-0.023 1.133,-0.128 0.855,-0.196 2.003,-0.622 3.476,-1.235 1.445,-0.601 2.563,-1.015 3.387,-1.207 0.39,-0.09 0.711,-0.129 0.957,-0.109 0.207,0.011 0.351,0.062 0.445,0.156 0.094,0.094 0.145,0.238 0.16,0.445 0.016,0.246 -0.023,0.567 -0.113,0.957 -0.191,0.825 -0.605,1.942 -1.207,3.387 -0.613,1.477 -1.039,2.621 -1.234,3.48 -0.106,0.446 -0.149,0.821 -0.125,1.129 0.023,0.348 0.132,0.625 0.328,0.817 0.191,0.195 0.468,0.304 0.816,0.328 0.309,0.023 0.684,-0.02 1.129,-0.125 0.859,-0.195 2.008,-0.621 3.481,-1.234 1.445,-0.602 2.562,-1.016 3.386,-1.207 0.391,-0.09 0.711,-0.129 0.957,-0.114 0.207,0.016 0.352,0.067 0.446,0.16 0.093,0.094 0.144,0.239 0.16,0.446 0.015,0.246 -0.024,0.566 -0.114,0.957 -0.191,0.824 -0.605,1.941 -1.207,3.386 -0.613,1.473 -1.039,2.622 -1.234,3.477 -0.105,0.449 -0.148,0.824 -0.125,1.133 0.023,0.347 0.133,0.621 0.328,0.816 0.192,0.196 0.469,0.305 0.817,0.328 0.304,0.024 0.683,-0.019 1.128,-0.125 0.856,-0.199 2.004,-0.621 3.481,-1.234 1.445,-0.605 2.562,-1.016 3.387,-1.207 0.39,-0.09 0.707,-0.129 0.957,-0.113 0.207,0.015 0.351,0.066 0.445,0.16 0.094,0.094 0.145,0.238 0.156,0.441 0.02,0.25 -0.019,0.571 -0.109,0.961 -0.192,0.824 -0.606,1.942 -1.207,3.387 -0.613,1.473 -1.039,2.621 -1.235,3.476 -0.105,0.45 -0.148,0.825 -0.128,1.133 0.023,0.348 0.136,0.621 0.328,0.817 0.195,0.195 0.468,0.304 0.82,0.328 0.305,0.019 0.68,-0.024 1.129,-0.125 0.855,-0.199 2.004,-0.621 3.48,-1.238 1.446,-0.602 2.563,-1.012 3.383,-1.204 0.395,-0.093 0.711,-0.128 0.961,-0.113 0.207,0.016 0.352,0.063 0.445,0.156 0.094,0.098 0.145,0.239 0.157,0.446 0.019,0.25 -0.02,0.57 -0.11,0.961 -0.191,0.824 -0.605,1.941 -1.207,3.382 -0.617,1.477 -1.039,2.625 -1.238,3.481 -0.102,0.449 -0.145,0.824 -0.125,1.133 0.023,0.347 0.133,0.621 0.328,0.816 0.195,0.195 0.469,0.305 0.82,0.328 0.305,0.02 0.68,-0.023 1.129,-0.125 0.856,-0.199 2.004,-0.621 3.481,-1.238 1.445,-0.602 2.562,-1.016 3.383,-1.207 0.394,-0.09 0.711,-0.129 0.961,-0.109 0.207,0.015 0.347,0.062 0.445,0.16 0.094,0.093 0.141,0.234 0.156,0.441 0.02,0.25 -0.019,0.567 -0.113,0.961 -0.188,0.82 -0.602,1.938 -1.203,3.383 -0.617,1.476 -1.039,2.625 -1.239,3.48 -0.101,0.45 -0.144,0.825 -0.125,1.129 0.024,0.352 0.133,0.625 0.329,0.821 0.195,0.195 0.468,0.304 0.816,0.328 0.309,0.019 0.684,-0.024 1.133,-0.125 0.855,-0.2 2.004,-0.621 3.48,-1.239 l 0.27,-0.113 -0.227,-0.539 z"
         id="path248"
         inkscape:connector-curvature="0" /></clipPath><clipPath
       clipPathUnits="userSpaceOnUse"
       id="clipPath260"><path
         d="M 0,0 H 151 V 182 H 0 Z"
         id="path258"
         inkscape:connector-curvature="0" /></clipPath><clipPath
       clipPathUnits="userSpaceOnUse"
       id="clipPath270"><path
         d="M 0,0 H 58 V 60 H 0 Z"
         id="path268"
         inkscape:connector-curvature="0" /></clipPath><clipPath
       clipPathUnits="userSpaceOnUse"
       id="clipPath280"><path
         d="M 0,0 H 151 V 182 H 0 Z"
         id="path278"
         inkscape:connector-curvature="0" /></clipPath><clipPath
       clipPathUnits="userSpaceOnUse"
       id="clipPath292"><path
         d="m 0,124 h 57 v 58 H 0 Z"
         id="path290"
         inkscape:connector-curvature="0" /></clipPath><clipPath
       clipPathUnits="userSpaceOnUse"
       id="clipPath302"><path
         d="M 0,0 H 151 V 182 H 0 Z"
         id="path300"
         inkscape:connector-curvature="0" /></clipPath><clipPath
       clipPathUnits="userSpaceOnUse"
       id="clipPath312"><path
         d="m 0,124 h 57 v 58 H 0 Z"
         id="path310"
         inkscape:connector-curvature="0" /></clipPath><clipPath
       clipPathUnits="userSpaceOnUse"
       id="clipPath318"><path
         d="M 0.621,181.434 56.988,125.066 56.574,124.652 0,181.227 l 0.414,0.414 z"
         id="path316"
         inkscape:connector-curvature="0" /></clipPath><clipPath
       clipPathUnits="userSpaceOnUse"
       id="clipPath328"><path
         d="M 0,0 H 151 V 182 H 0 Z"
         id="path326"
         inkscape:connector-curvature="0" /></clipPath><clipPath
       clipPathUnits="userSpaceOnUse"
       id="clipPath338"><path
         d="m 0,124 h 57 v 58 H 0 Z"
         id="path336"
         inkscape:connector-curvature="0" /></clipPath><clipPath
       clipPathUnits="userSpaceOnUse"
       id="clipPath348"><path
         d="M 0,0 H 151 V 182 H 0 Z"
         id="path346"
         inkscape:connector-curvature="0" /></clipPath><clipPath
       clipPathUnits="userSpaceOnUse"
       id="clipPath360"><path
         d="m 23,150 h 9 v 8 h -9 z"
         id="path358"
         inkscape:connector-curvature="0" /></clipPath><clipPath
       clipPathUnits="userSpaceOnUse"
       id="clipPath370"><path
         d="M 0,0 H 151 V 182 H 0 Z"
         id="path368"
         inkscape:connector-curvature="0" /></clipPath><clipPath
       clipPathUnits="userSpaceOnUse"
       id="clipPath380"><path
         d="m 23,150 h 9 v 8 h -9 z"
         id="path378"
         inkscape:connector-curvature="0" /></clipPath><clipPath
       clipPathUnits="userSpaceOnUse"
       id="clipPath386"><path
         d="m 30.293,150.961 -2.481,5.793 0.27,0.113 0.273,-0.09 -0.824,-2.484 -0.047,-0.137 -0.14,-0.047 -2.481,-0.828 -0.093,0.278 0.117,0.269 5.789,-2.48 -0.114,-0.27 z m 0.152,-0.152 -5.789,2.48 -0.707,0.305 0.731,0.242 2.48,0.828 0.094,-0.277 -0.277,0.093 0.824,2.481 0.246,0.73 0.301,-0.707 2.484,-5.793 0.285,-0.671 z"
         id="path384"
         inkscape:connector-curvature="0" /></clipPath><clipPath
       clipPathUnits="userSpaceOnUse"
       id="clipPath396"><path
         d="M 0,0 H 151 V 182 H 0 Z"
         id="path394"
         inkscape:connector-curvature="0" /></clipPath><clipPath
       clipPathUnits="userSpaceOnUse"
       id="clipPath406"><path
         d="m 23,150 h 9 v 8 h -9 z"
         id="path404"
         inkscape:connector-curvature="0" /></clipPath><clipPath
       clipPathUnits="userSpaceOnUse"
       id="clipPath416"><path
         d="M 0,0 H 151 V 182 H 0 Z"
         id="path414"
         inkscape:connector-curvature="0" /></clipPath><clipPath
       clipPathUnits="userSpaceOnUse"
       id="clipPath428"><path
         d="m 24,151 h 7 v 6 h -7 z"
         id="path426"
         inkscape:connector-curvature="0" /></clipPath><clipPath
       clipPathUnits="userSpaceOnUse"
       id="clipPath438"><path
         d="M 0,0 H 151 V 182 H 0 Z"
         id="path436"
         inkscape:connector-curvature="0" /></clipPath><clipPath
       clipPathUnits="userSpaceOnUse"
       id="clipPath448"><path
         d="m 24,151 h 7 v 6 h -7 z"
         id="path446"
         inkscape:connector-curvature="0" /></clipPath><clipPath
       clipPathUnits="userSpaceOnUse"
       id="clipPath454"><path
         d="m 30.562,151.078 -2.48,5.789 -0.828,-2.48 -2.484,-0.828 z"
         id="path452"
         inkscape:connector-curvature="0" /></clipPath><clipPath
       clipPathUnits="userSpaceOnUse"
       id="clipPath464"><path
         d="M 0,0 H 151 V 182 H 0 Z"
         id="path462"
         inkscape:connector-curvature="0" /></clipPath><clipPath
       clipPathUnits="userSpaceOnUse"
       id="clipPath474"><path
         d="m 24,151 h 7 v 6 h -7 z"
         id="path472"
         inkscape:connector-curvature="0" /></clipPath><clipPath
       clipPathUnits="userSpaceOnUse"
       id="clipPath484"><path
         d="M 0,0 H 151 V 182 H 0 Z"
         id="path482"
         inkscape:connector-curvature="0" /></clipPath><clipPath
       clipPathUnits="userSpaceOnUse"
       id="clipPath496"><path
         d="m 71.406,16.578 h 56 v 56 h -56 z"
         id="path494"
         inkscape:connector-curvature="0" /></clipPath><clipPath
       clipPathUnits="userSpaceOnUse"
       id="clipPath506"><path
         d="M 0,0 H 151 V 182 H 0 Z"
         id="path504"
         inkscape:connector-curvature="0" /></clipPath><clipPath
       clipPathUnits="userSpaceOnUse"
       id="clipPath516"><path
         d="m 72,17 h 55 V 72 H 72 Z"
         id="path514"
         inkscape:connector-curvature="0" /></clipPath><clipPath
       clipPathUnits="userSpaceOnUse"
       id="clipPath522"><path
         d="m 80.953,63.473 4.137,-4.137 c 0.117,-0.113 0.117,-0.301 0,-0.414 -0.113,-0.113 -0.297,-0.113 -0.414,0 l -4.133,4.137 c -0.117,0.113 -0.117,0.3 0,0.414 0.113,0.113 0.297,0.113 0.41,0 z m 8.274,-8.274 4.136,-4.137 c 0.114,-0.113 0.114,-0.3 0,-0.414 -0.113,-0.113 -0.301,-0.113 -0.414,0 l -4.137,4.137 c -0.113,0.113 -0.113,0.301 0,0.414 0.118,0.113 0.301,0.113 0.415,0 z m 8.273,-8.273 4.137,-4.137 c 0.113,-0.113 0.113,-0.301 0,-0.414 -0.114,-0.113 -0.301,-0.113 -0.414,0 l -4.137,4.137 c -0.113,0.113 -0.113,0.3 0,0.414 0.117,0.113 0.301,0.113 0.414,0 z m 8.273,-8.274 4.137,-4.136 c 0.113,-0.114 0.113,-0.297 0,-0.414 -0.113,-0.114 -0.301,-0.114 -0.414,0 l -4.137,4.136 c -0.113,0.114 -0.113,0.301 0,0.414 0.114,0.114 0.301,0.114 0.414,0 z m 8.274,-8.273 4.137,-4.137 c 0.113,-0.113 0.113,-0.297 0,-0.414 -0.114,-0.113 -0.301,-0.113 -0.414,0 l -4.137,4.137 c -0.113,0.117 -0.113,0.301 0,0.414 0.113,0.113 0.301,0.113 0.414,0 z m 8.273,-8.274 4.137,-4.132 c 0.113,-0.118 0.113,-0.301 0,-0.414 -0.113,-0.118 -0.301,-0.118 -0.414,0 l -4.137,4.132 c -0.113,0.118 -0.113,0.301 0,0.414 0.114,0.118 0.301,0.118 0.414,0 z m -49.64,49.641 4.136,-4.137 c 0.118,-0.113 0.118,-0.3 0,-0.414 -0.113,-0.113 -0.296,-0.113 -0.41,0 l -4.14,4.137 c -0.114,0.113 -0.114,0.301 0,0.414 0.117,0.113 0.3,0.113 0.414,0 z"
         id="path520"
         inkscape:connector-curvature="0" /></clipPath><clipPath
       clipPathUnits="userSpaceOnUse"
       id="clipPath532"><path
         d="M 0,0 H 151 V 182 H 0 Z"
         id="path530"
         inkscape:connector-curvature="0" /></clipPath><clipPath
       clipPathUnits="userSpaceOnUse"
       id="clipPath542"><path
         d="m 71.406,16.578 h 56 v 56 h -56 z"
         id="path540"
         inkscape:connector-curvature="0" /></clipPath><clipPath
       clipPathUnits="userSpaceOnUse"
       id="clipPath552"><path
         d="M 0,0 H 151 V 182 H 0 Z"
         id="path550"
         inkscape:connector-curvature="0" /></clipPath><clipPath
       clipPathUnits="userSpaceOnUse"
       id="clipPath564"><path
         d="m 96.406,40.578 h 7 v 7 h -7 z"
         id="path562"
         inkscape:connector-curvature="0" /></clipPath><clipPath
       clipPathUnits="userSpaceOnUse"
       id="clipPath574"><path
         d="M 0,0 H 151 V 182 H 0 Z"
         id="path572"
         inkscape:connector-curvature="0" /></clipPath><clipPath
       clipPathUnits="userSpaceOnUse"
       id="clipPath584"><path
         d="m 96,41 h 7 v 7 h -7 z"
         id="path582"
         inkscape:connector-curvature="0" /></clipPath><clipPath
       clipPathUnits="userSpaceOnUse"
       id="clipPath590"><path
         d="m 102.625,41.391 -2.484,5.793 -0.829,-2.485 -2.48,-0.828 z"
         id="path588"
         inkscape:connector-curvature="0" /></clipPath><clipPath
       clipPathUnits="userSpaceOnUse"
       id="clipPath600"><path
         d="M 0,0 H 151 V 182 H 0 Z"
         id="path598"
         inkscape:connector-curvature="0" /></clipPath><clipPath
       clipPathUnits="userSpaceOnUse"
       id="clipPath610"><path
         d="m 96.406,40.578 h 7 v 7 h -7 z"
         id="path608"
         inkscape:connector-curvature="0" /></clipPath><clipPath
       clipPathUnits="userSpaceOnUse"
       id="clipPath620"><path
         d="M 0,0 H 151 V 182 H 0 Z"
         id="path618"
         inkscape:connector-curvature="0" /></clipPath><clipPath
       clipPathUnits="userSpaceOnUse"
       id="clipPath632"><path
         d="m 95.406,40.578 h 8 v 8 h -8 z"
         id="path630"
         inkscape:connector-curvature="0" /></clipPath><clipPath
       clipPathUnits="userSpaceOnUse"
       id="clipPath642"><path
         d="M 0,0 H 151 V 182 H 0 Z"
         id="path640"
         inkscape:connector-curvature="0" /></clipPath><clipPath
       clipPathUnits="userSpaceOnUse"
       id="clipPath652"><path
         d="m 96,40 h 8 v 9 h -8 z"
         id="path650"
         inkscape:connector-curvature="0" /></clipPath><clipPath
       clipPathUnits="userSpaceOnUse"
       id="clipPath658"><path
         d="m 102.355,41.277 -2.484,5.789 0.27,0.118 0.277,-0.094 -0.828,-2.485 -0.047,-0.136 -0.137,-0.047 -2.484,-0.828 -0.09,0.277 0.113,0.27 5.793,-2.481 -0.113,-0.269 z m 0.153,-0.156 -5.793,2.484 -0.707,0.301 0.73,0.242 2.481,0.829 0.093,-0.278 -0.277,0.094 0.828,2.48 0.242,0.731 0.305,-0.707 2.481,-5.793 0.289,-0.672 z"
         id="path656"
         inkscape:connector-curvature="0" /></clipPath><clipPath
       clipPathUnits="userSpaceOnUse"
       id="clipPath668"><path
         d="M 0,0 H 151 V 182 H 0 Z"
         id="path666"
         inkscape:connector-curvature="0" /></clipPath><clipPath
       clipPathUnits="userSpaceOnUse"
       id="clipPath678"><path
         d="m 95.406,40.578 h 8 v 8 h -8 z"
         id="path676"
         inkscape:connector-curvature="0" /></clipPath><clipPath
       clipPathUnits="userSpaceOnUse"
       id="clipPath688"><path
         d="M 0,0 H 151 V 182 H 0 Z"
         id="path686"
         inkscape:connector-curvature="0" /></clipPath><clipPath
       clipPathUnits="userSpaceOnUse"
       id="clipPath700"><path
         d="m 72,52 h 79 v 80 H 72 Z"
         id="path698"
         inkscape:connector-curvature="0" /></clipPath><clipPath
       clipPathUnits="userSpaceOnUse"
       id="clipPath706"><path
         d="M 112.168,52.672 151.387,92.645 111.414,131.863 72.195,91.891 Z"
         id="path704"
         inkscape:connector-curvature="0" /></clipPath><clipPath
       clipPathUnits="userSpaceOnUse"
       id="clipPath716"><path
         d="M 0,0 H 151 V 182 H 0 Z"
         id="path714"
         inkscape:connector-curvature="0" /></clipPath><clipPath
       clipPathUnits="userSpaceOnUse"
       id="clipPath726"><path
         d="m 73,91 h 78 v 2 H 73 Z"
         id="path724"
         inkscape:connector-curvature="0" /></clipPath><clipPath
       clipPathUnits="userSpaceOnUse"
       id="clipPath732"><path
         d="m 85.379,92.328 5.851,0.059 c 0.165,0.004 0.297,-0.129 0.297,-0.293 0,-0.16 -0.129,-0.289 -0.293,-0.293 l -5.843,-0.055 c -0.164,-0.004 -0.297,0.129 -0.297,0.289 -0.004,0.16 0.125,0.293 0.285,0.293 z m 11.699,0.113 5.852,0.055 c 0.16,0 0.293,-0.129 0.297,-0.289 0,-0.16 -0.133,-0.297 -0.289,-0.297 l -5.852,-0.055 c -0.16,-0.003 -0.293,0.129 -0.297,0.29 0.004,0.164 0.133,0.293 0.289,0.296 z m 11.703,0.11 5.848,0.054 c 0.16,0.004 0.297,-0.128 0.297,-0.289 0,-0.16 -0.129,-0.293 -0.289,-0.296 l -5.852,-0.055 c -0.16,0 -0.293,0.129 -0.297,0.293 0.004,0.16 0.133,0.293 0.293,0.293 z m 11.699,0.109 5.848,0.059 c 0.16,0 0.293,-0.129 0.297,-0.293 0.004,-0.156 -0.129,-0.293 -0.289,-0.293 l -5.852,-0.055 c -0.16,-0.004 -0.293,0.129 -0.293,0.289 -0.003,0.16 0.129,0.293 0.289,0.293 z m 11.7,0.113 5.851,0.055 c 0.16,0.004 0.289,-0.125 0.293,-0.289 0.004,-0.16 -0.129,-0.293 -0.289,-0.297 l -5.851,-0.054 c -0.161,0 -0.293,0.128 -0.293,0.289 -0.004,0.16 0.129,0.296 0.289,0.296 z m 11.699,0.11 5.848,0.062 c 0.164,-0.004 0.293,-0.133 0.296,-0.293 0.004,-0.164 -0.128,-0.297 -0.289,-0.297 l -5.847,-0.054 c -0.164,0 -0.297,0.129 -0.297,0.289 -0.004,0.164 0.125,0.297 0.289,0.293 z m -70.199,-0.664 5.851,0.054 c 0.16,0.004 0.297,-0.128 0.293,-0.289 0.004,-0.16 -0.125,-0.293 -0.285,-0.293 l -5.855,-0.058 c -0.157,-0.004 -0.293,0.129 -0.293,0.289 0,0.164 0.129,0.293 0.289,0.297 z"
         id="path730"
         inkscape:connector-curvature="0" /></clipPath><clipPath
       clipPathUnits="userSpaceOnUse"
       id="clipPath742"><path
         d="M 0,0 H 151 V 182 H 0 Z"
         id="path740"
         inkscape:connector-curvature="0" /></clipPath><clipPath
       clipPathUnits="userSpaceOnUse"
       id="clipPath752"><path
         d="m 72,52 h 79 v 80 H 72 Z"
         id="path750"
         inkscape:connector-curvature="0" /></clipPath><clipPath
       clipPathUnits="userSpaceOnUse"
       id="clipPath758"><path
         d="m 72.195,91.891 39.219,39.972 39.973,-39.218 -39.219,-39.973 z"
         id="path756"
         inkscape:connector-curvature="0" /></clipPath><clipPath
       clipPathUnits="userSpaceOnUse"
       id="clipPath768"><path
         d="M 0,0 H 151 V 182 H 0 Z"
         id="path766"
         inkscape:connector-curvature="0" /></clipPath><clipPath
       clipPathUnits="userSpaceOnUse"
       id="clipPath780"><path
         d="m 107,87 h 11 v 11 h -11 z"
         id="path778"
         inkscape:connector-curvature="0" /></clipPath><clipPath
       clipPathUnits="userSpaceOnUse"
       id="clipPath786"><path
         d="m 112.543,87.324 4.902,4.996 -4.996,4.903 -4.902,-4.996 z"
         id="path784"
         inkscape:connector-curvature="0" /></clipPath><clipPath
       clipPathUnits="userSpaceOnUse"
       id="clipPath796"><path
         d="M 0,0 H 151 V 182 H 0 Z"
         id="path794"
         inkscape:connector-curvature="0" /></clipPath><clipPath
       clipPathUnits="userSpaceOnUse"
       id="clipPath806"><path
         d="m 110,89 h 7 v 6 h -7 z"
         id="path804"
         inkscape:connector-curvature="0" /></clipPath><clipPath
       clipPathUnits="userSpaceOnUse"
       id="clipPath812"><path
         d="m 116.32,92.332 -5.875,2.285 1.192,-2.332 -1.145,-2.351 z"
         id="path810"
         inkscape:connector-curvature="0" /></clipPath><clipPath
       clipPathUnits="userSpaceOnUse"
       id="clipPath822"><path
         d="M 0,0 H 151 V 182 H 0 Z"
         id="path820"
         inkscape:connector-curvature="0" /></clipPath><clipPath
       clipPathUnits="userSpaceOnUse"
       id="clipPath832"><path
         d="m 107,87 h 11 v 11 h -11 z"
         id="path830"
         inkscape:connector-curvature="0" /></clipPath><clipPath
       clipPathUnits="userSpaceOnUse"
       id="clipPath838"><path
         d="m 107.547,92.227 4.902,4.996 4.996,-4.903 -4.902,-4.996 z"
         id="path836"
         inkscape:connector-curvature="0" /></clipPath><clipPath
       clipPathUnits="userSpaceOnUse"
       id="clipPath848"><path
         d="M 0,0 H 151 V 182 H 0 Z"
         id="path846"
         inkscape:connector-curvature="0" /></clipPath><clipPath
       clipPathUnits="userSpaceOnUse"
       id="clipPath860"><path
         d="m 106,86 h 12 v 12 h -12 z"
         id="path858"
         inkscape:connector-curvature="0" /></clipPath><clipPath
       clipPathUnits="userSpaceOnUse"
       id="clipPath866"><path
         d="m 111.844,86.609 5.601,5.711 -5.707,5.606 -5.605,-5.711 z"
         id="path864"
         inkscape:connector-curvature="0" /></clipPath><clipPath
       clipPathUnits="userSpaceOnUse"
       id="clipPath876"><path
         d="M 0,0 H 151 V 182 H 0 Z"
         id="path874"
         inkscape:connector-curvature="0" /></clipPath><clipPath
       clipPathUnits="userSpaceOnUse"
       id="clipPath886"><path
         d="m 109,89 h 9 v 7 h -9 z"
         id="path884"
         inkscape:connector-curvature="0" /></clipPath><clipPath
       clipPathUnits="userSpaceOnUse"
       id="clipPath892"><path
         d="m 116.211,92.062 -5.871,2.282 0.105,0.273 0.262,0.133 1.191,-2.332 0.067,-0.129 -0.063,-0.129 -1.148,-2.355 -0.262,0.129 -0.113,0.269 5.828,2.399 0.113,-0.27 z m 0.219,0 -5.828,-2.398 -0.711,-0.293 0.339,0.691 1.145,2.352 0.262,-0.129 -0.258,-0.133 -1.191,2.328 -0.352,0.684 0.719,-0.277 5.871,-2.285 0.679,-0.266 z"
         id="path890"
         inkscape:connector-curvature="0" /></clipPath><clipPath
       clipPathUnits="userSpaceOnUse"
       id="clipPath902"><path
         d="M 0,0 H 151 V 182 H 0 Z"
         id="path900"
         inkscape:connector-curvature="0" /></clipPath><clipPath
       clipPathUnits="userSpaceOnUse"
       id="clipPath912"><path
         d="m 106,86 h 12 v 12 h -12 z"
         id="path910"
         inkscape:connector-curvature="0" /></clipPath><clipPath
       clipPathUnits="userSpaceOnUse"
       id="clipPath918"><path
         d="m 106.133,92.215 5.605,5.711 5.707,-5.606 -5.601,-5.711 z"
         id="path916"
         inkscape:connector-curvature="0" /></clipPath><clipPath
       clipPathUnits="userSpaceOnUse"
       id="clipPath928"><path
         d="M 0,0 H 151 V 182 H 0 Z"
         id="path926"
         inkscape:connector-curvature="0" /></clipPath></defs><sodipodi:namedview
     pagecolor="#ffffff"
     bordercolor="#666666"
     borderopacity="1"
     objecttolerance="10"
     gridtolerance="10"
     guidetolerance="10"
     inkscape:pageopacity="0"
     inkscape:pageshadow="2"
     inkscape:window-width="1920"
     inkscape:window-height="1126"
     id="namedview4"
     showgrid="false"
     inkscape:zoom="3.8606374"
     inkscape:cx="99.98349"
     inkscape:cy="121.09399"
     inkscape:window-x="0"
     inkscape:window-y="25"
     inkscape:window-maximized="1"
     inkscape:current-layer="g10"
     inkscape:pagecheckerboard="0" /><g
     id="g10"
     inkscape:groupmode="layer"
     inkscape:label="t-channel_ppi0pi0"
     transform="matrix(1.3333333,0,0,1.3333333,0,8.0546997e-6)"><g
       id="g12" /><g
       id="g14"><g
         id="g16"
         clip-path="url(#clipPath20)"><g
           id="g22"><g
             id="g24"><g
               id="g26"
               clip-path="url(#clipPath30)"><g
                 id="g32" /><g
                 id="g34"><g
                   id="g36"
                   clip-path="url(#clipPath40)"><g
                     id="g42"
                     clip-path="url(#clipPath46)"><g
                       id="g48"><g
                         id="g50"><g
                           id="g52"
                           clip-path="url(#clipPath56)"><g
                             id="g58" /><g
                             id="g60"><g
                               id="g62"
                               clip-path="url(#clipPath66)"><g
                                 id="g68"><g
                                   id="g70"><g
                                   id="g72"
                                   clip-path="url(#clipPath76)"><g
                                   id="g78"><path
                                   d="m 74.234,110.953 56.368,56.367 0.414,-0.414 -56.575,-56.574 -0.414,0.414 0.207,0.207"
                                   style="fill:#000000;fill-opacity:1;fill-rule:nonzero;stroke:none"
                                   id="path80"
                                   inkscape:connector-curvature="0" /></g></g></g></g></g></g></g></g></g></g></g></g></g></g></g></g></g><g
       id="g82"><g
         id="g84"
         clip-path="url(#clipPath88)"><g
           id="g90"><g
             id="g92"><g
               id="g94"
               clip-path="url(#clipPath98)"><g
                 id="g100" /><g
                 id="g102"><g
                   id="g104"
                   clip-path="url(#clipPath108)"><g
                     id="g110"
                     clip-path="url(#clipPath114)"><g
                       id="g116"><g
                         id="g118"><g
                           id="g120"
                           clip-path="url(#clipPath124)"><g
                             id="g126" /><g
                             id="g128"><g
                               id="g130"
                               clip-path="url(#clipPath134)"><g
                                 id="g136"><g
                                   id="g138"><g
                                   id="g140"
                                   clip-path="url(#clipPath144)"><g
                                   id="g146"><path
                                   d="m 104.59,140.895 -5.793,-2.485 2.484,-0.824 0.824,-2.484"
                                   style="fill:#000000;fill-opacity:1;fill-rule:nonzero;stroke:none"
                                   id="path148"
                                   inkscape:connector-curvature="0" /></g></g></g></g></g></g></g></g></g></g></g></g></g></g></g></g></g><g
       id="g150"><g
         id="g152"
         clip-path="url(#clipPath156)"><g
           id="g158"><g
             id="g160"><g
               id="g162"
               clip-path="url(#clipPath166)"><g
                 id="g168" /><g
                 id="g170"><g
                   id="g172"
                   clip-path="url(#clipPath176)"><g
                     id="g178"
                     clip-path="url(#clipPath182)"><g
                       id="g184"><g
                         id="g186"><g
                           id="g188"
                           clip-path="url(#clipPath192)"><g
                             id="g194" /><g
                             id="g196"><g
                               id="g198"
                               clip-path="url(#clipPath202)"><g
                                 id="g204"><g
                                   id="g206"><g
                                   id="g208"
                                   clip-path="url(#clipPath212)"><g
                                   id="g214"><path
                                   d="m 104.707,140.625 -5.793,-2.484 -0.117,0.269 0.094,0.278 2.48,-0.825 0.141,-0.047 0.047,-0.14 0.828,-2.481 -0.282,-0.093 -0.265,0.117 2.48,5.789 0.27,-0.113 z m 0.152,0.152 -2.484,-5.789 -0.301,-0.707 -1.07,3.211 0.277,0.094 -0.093,-0.281 -2.481,0.828 -0.73,0.246 0.707,0.301 5.789,2.484 0.672,0.285 -0.286,-0.672"
                                   style="fill:#000000;fill-opacity:1;fill-rule:nonzero;stroke:none"
                                   id="path216"
                                   inkscape:connector-curvature="0" /></g></g></g></g></g></g></g></g></g></g></g></g></g></g></g></g></g><g
       id="g218"><g
         id="g220"
         clip-path="url(#clipPath224)"><g
           id="g226"><g
             id="g228"><g
               id="g230"
               clip-path="url(#clipPath234)"><g
                 id="g236" /><g
                 id="g238"><g
                   id="g240"
                   clip-path="url(#clipPath244)"><g
                     id="g246"
                     clip-path="url(#clipPath250)"><g
                       id="g252"><g
                         id="g254"><g
                           id="g256"
                           clip-path="url(#clipPath260)"><g
                             id="g262" /><g
                             id="g264"><g
                               id="g266"
                               clip-path="url(#clipPath270)"><g
                                 id="g272"><g
                                   id="g274"><g
                                   id="g276"
                                   clip-path="url(#clipPath280)"><g
                                   id="g282"><path
                                   d="m 57.305,57.527 c -1.446,0.602 -2.563,1.016 -3.387,1.207 -0.391,0.09 -0.711,0.129 -0.957,0.11 -0.207,-0.012 -0.352,-0.063 -0.445,-0.156 -0.094,-0.094 -0.145,-0.239 -0.157,-0.446 -0.019,-0.25 0.02,-0.566 0.11,-0.957 0.191,-0.824 0.605,-1.941 1.207,-3.387 0.613,-1.476 1.039,-2.625 1.238,-3.48 0.102,-0.449 0.145,-0.824 0.125,-1.129 -0.027,-0.348 -0.137,-0.625 -0.332,-0.82 -0.191,-0.192 -0.469,-0.301 -0.816,-0.328 -0.309,-0.02 -0.684,0.023 -1.129,0.129 -0.86,0.195 -2.004,0.621 -3.481,1.234 -1.445,0.601 -2.562,1.016 -3.386,1.207 -0.391,0.09 -0.707,0.129 -0.957,0.113 -0.208,-0.015 -0.352,-0.066 -0.446,-0.16 -0.094,-0.094 -0.144,-0.238 -0.156,-0.445 -0.02,-0.246 0.019,-0.567 0.109,-0.957 0.192,-0.824 0.606,-1.942 1.207,-3.387 0.614,-1.473 1.039,-2.621 1.235,-3.48 0.105,-0.446 0.148,-0.821 0.129,-1.129 -0.024,-0.348 -0.137,-0.625 -0.328,-0.817 -0.196,-0.195 -0.469,-0.304 -0.821,-0.328 -0.305,-0.023 -0.679,0.02 -1.129,0.125 -0.855,0.195 -2.004,0.621 -3.48,1.234 -1.446,0.602 -2.563,1.016 -3.387,1.208 -0.391,0.089 -0.707,0.128 -0.957,0.113 -0.207,-0.016 -0.352,-0.067 -0.445,-0.16 -0.094,-0.094 -0.145,-0.239 -0.157,-0.446 -0.019,-0.246 0.02,-0.566 0.114,-0.957 0.187,-0.824 0.601,-1.941 1.203,-3.386 0.617,-1.473 1.039,-2.622 1.238,-3.477 0.102,-0.449 0.145,-0.824 0.125,-1.133 -0.023,-0.347 -0.133,-0.621 -0.328,-0.816 -0.195,-0.196 -0.469,-0.305 -0.816,-0.328 -0.309,-0.024 -0.684,0.019 -1.133,0.125 -0.856,0.199 -2.004,0.621 -3.481,1.234 -1.441,0.605 -2.558,1.016 -3.382,1.207 -0.395,0.09 -0.711,0.129 -0.961,0.113 -0.207,-0.015 -0.348,-0.066 -0.446,-0.16 -0.093,-0.094 -0.14,-0.234 -0.156,-0.441 -0.019,-0.25 0.02,-0.571 0.113,-0.961 0.188,-0.824 0.602,-1.942 1.203,-3.383 0.618,-1.477 1.04,-2.625 1.239,-3.48 0.101,-0.45 0.148,-0.825 0.125,-1.133 -0.024,-0.348 -0.133,-0.621 -0.328,-0.817 -0.196,-0.195 -0.469,-0.304 -0.817,-0.328 -0.308,-0.023 -0.683,0.02 -1.133,0.125 -0.855,0.199 -2.003,0.621 -3.48,1.239 -1.441,0.601 -2.559,1.015 -3.383,1.203 -0.39,0.089 -0.711,0.129 -0.961,0.113 -0.207,-0.016 -0.347,-0.063 -0.441,-0.16 -0.094,-0.094 -0.145,-0.235 -0.16,-0.442 -0.016,-0.25 0.023,-0.57 0.113,-0.961 0.187,-0.82 0.601,-1.941 1.203,-3.382 0.617,-1.477 1.039,-2.625 1.238,-3.481 0.106,-0.449 0.149,-0.824 0.125,-1.133 -0.023,-0.347 -0.133,-0.621 -0.328,-0.816 -0.195,-0.195 -0.469,-0.305 -0.816,-0.328 -0.309,-0.02 -0.684,0.023 -1.133,0.125 -0.856,0.199 -2.004,0.621 -3.477,1.238 -1.445,0.602 -2.562,1.016 -3.386,1.207 -0.391,0.09 -0.711,0.129 -0.957,0.109 -0.211,-0.015 -0.352,-0.062 -0.446,-0.156 -0.093,-0.094 -0.144,-0.238 -0.16,-0.445 -0.015,-0.25 0.024,-0.567 0.113,-0.961 0.192,-0.824 0.606,-1.941 1.207,-3.383 0.614,-1.476 1.04,-2.625 1.235,-3.48 C 14.902,9.855 14.945,9.48 14.922,9.176 14.898,8.828 14.789,8.551 14.594,8.355 14.398,8.164 14.125,8.051 13.777,8.027 13.469,8.008 13.094,8.051 12.645,8.152 11.789,8.352 10.641,8.773 9.168,9.391 7.723,9.992 6.605,10.406 5.781,10.598 5.391,10.688 5.07,10.727 4.824,10.707 4.617,10.691 4.473,10.645 4.379,10.551 4.285,10.457 4.234,10.312 4.219,10.105 4.203,9.855 4.242,9.539 4.332,9.148 4.523,8.324 4.938,7.207 5.539,5.762 6.152,4.285 6.574,3.137 6.773,2.281 6.879,1.832 6.922,1.457 6.898,1.152 6.875,0.805 6.766,0.527 6.57,0.332 6.379,0.141 6.102,0.027 5.754,0.004 5.445,-0.016 5.07,0.027 4.625,0.133 3.766,0.328 2.621,0.754 1.145,1.367 L 0.875,1.48 1.098,2.02 1.371,1.906 C 2.812,1.305 3.93,0.891 4.754,0.703 5.145,0.609 5.465,0.57 5.715,0.59 5.922,0.602 6.062,0.652 6.156,0.746 6.254,0.84 6.301,0.984 6.316,1.191 6.332,1.441 6.293,1.758 6.203,2.148 6.016,2.973 5.602,4.09 5,5.535 4.383,7.012 3.961,8.16 3.762,9.016 3.656,9.465 3.613,9.84 3.637,10.145 3.66,10.496 3.77,10.77 3.965,10.965 4.16,11.156 4.434,11.266 4.781,11.293 5.09,11.312 5.465,11.27 5.914,11.168 6.77,10.969 7.918,10.547 9.391,9.93 c 1.445,-0.602 2.562,-1.016 3.386,-1.207 0.391,-0.09 0.711,-0.129 0.961,-0.11 0.207,0.012 0.348,0.063 0.442,0.157 0.093,0.093 0.144,0.238 0.16,0.445 0.015,0.25 -0.024,0.566 -0.113,0.957 -0.192,0.824 -0.602,1.941 -1.207,3.387 -0.614,1.472 -1.036,2.625 -1.235,3.48 -0.105,0.449 -0.148,0.824 -0.125,1.129 0.024,0.348 0.133,0.625 0.328,0.816 0.192,0.196 0.469,0.305 0.817,0.332 0.308,0.02 0.683,-0.023 1.133,-0.128 0.855,-0.196 2.003,-0.622 3.476,-1.235 1.445,-0.601 2.563,-1.015 3.387,-1.207 0.39,-0.09 0.711,-0.129 0.957,-0.109 0.207,0.011 0.351,0.062 0.445,0.156 0.094,0.094 0.145,0.238 0.16,0.445 0.016,0.246 -0.023,0.567 -0.113,0.957 -0.191,0.825 -0.605,1.942 -1.207,3.387 -0.613,1.477 -1.039,2.621 -1.234,3.48 -0.106,0.446 -0.149,0.821 -0.125,1.129 0.023,0.348 0.132,0.625 0.328,0.817 0.191,0.195 0.468,0.304 0.816,0.328 0.309,0.023 0.684,-0.02 1.129,-0.125 0.859,-0.195 2.008,-0.621 3.481,-1.234 1.445,-0.602 2.562,-1.016 3.386,-1.207 0.391,-0.09 0.711,-0.129 0.957,-0.114 0.207,0.016 0.352,0.067 0.446,0.16 0.093,0.094 0.144,0.239 0.16,0.446 0.015,0.246 -0.024,0.566 -0.114,0.957 -0.191,0.824 -0.605,1.941 -1.207,3.386 -0.613,1.473 -1.039,2.622 -1.234,3.477 -0.105,0.449 -0.148,0.824 -0.125,1.133 0.023,0.347 0.133,0.621 0.328,0.816 0.192,0.196 0.469,0.305 0.817,0.328 0.304,0.024 0.683,-0.019 1.128,-0.125 0.856,-0.199 2.004,-0.621 3.481,-1.234 1.445,-0.605 2.562,-1.016 3.387,-1.207 0.39,-0.09 0.707,-0.129 0.957,-0.113 0.207,0.015 0.351,0.066 0.445,0.16 0.094,0.094 0.145,0.238 0.156,0.441 0.02,0.25 -0.019,0.571 -0.109,0.961 -0.192,0.824 -0.606,1.942 -1.207,3.387 -0.613,1.473 -1.039,2.621 -1.235,3.476 -0.105,0.45 -0.148,0.825 -0.128,1.133 0.023,0.348 0.136,0.621 0.328,0.817 0.195,0.195 0.468,0.304 0.82,0.328 0.305,0.019 0.68,-0.024 1.129,-0.125 0.855,-0.199 2.004,-0.621 3.48,-1.238 1.446,-0.602 2.563,-1.012 3.383,-1.204 0.395,-0.093 0.711,-0.128 0.961,-0.113 0.207,0.016 0.352,0.063 0.445,0.156 0.094,0.098 0.145,0.239 0.157,0.446 0.019,0.25 -0.02,0.57 -0.11,0.961 -0.191,0.824 -0.605,1.941 -1.207,3.382 -0.617,1.477 -1.039,2.625 -1.238,3.481 -0.102,0.449 -0.145,0.824 -0.125,1.133 0.023,0.347 0.133,0.621 0.328,0.816 0.195,0.195 0.469,0.305 0.82,0.328 0.305,0.02 0.68,-0.023 1.129,-0.125 0.856,-0.199 2.004,-0.621 3.481,-1.238 1.445,-0.602 2.562,-1.016 3.383,-1.207 0.394,-0.09 0.711,-0.129 0.961,-0.109 0.207,0.015 0.347,0.062 0.445,0.16 0.094,0.093 0.141,0.234 0.156,0.441 0.02,0.25 -0.019,0.567 -0.113,0.961 -0.188,0.82 -0.602,1.938 -1.203,3.383 -0.617,1.476 -1.039,2.625 -1.239,3.48 -0.101,0.45 -0.144,0.825 -0.125,1.129 0.024,0.352 0.133,0.625 0.329,0.821 0.195,0.195 0.468,0.304 0.816,0.328 0.309,0.019 0.684,-0.024 1.133,-0.125 0.855,-0.2 2.004,-0.621 3.48,-1.239 l 0.27,-0.113 -0.227,-0.539 -0.269,0.113"
                                   style="fill:#000000;fill-opacity:1;fill-rule:nonzero;stroke:none"
                                   id="path284"
                                   inkscape:connector-curvature="0" /></g></g></g></g></g></g></g></g></g></g></g></g></g></g></g></g></g><g
       id="g286"><g
         id="g288"
         clip-path="url(#clipPath292)"><g
           id="g294"><g
             id="g296"><g
               id="g298"
               clip-path="url(#clipPath302)"><g
                 id="g304" /><g
                 id="g306"><g
                   id="g308"
                   clip-path="url(#clipPath312)"><g
                     id="g314"
                     clip-path="url(#clipPath318)"><g
                       id="g320"><g
                         id="g322"><g
                           id="g324"
                           clip-path="url(#clipPath328)"><g
                             id="g330" /><g
                             id="g332"><g
                               id="g334"
                               clip-path="url(#clipPath338)"><g
                                 id="g340"><g
                                   id="g342"><g
                                   id="g344"
                                   clip-path="url(#clipPath348)"><g
                                   id="g350"><path
                                   d="M 0.621,181.434 56.988,125.066 56.574,124.652 0,181.227 l 0.414,0.414 0.207,-0.207"
                                   style="fill:#000000;fill-opacity:1;fill-rule:nonzero;stroke:none"
                                   id="path352"
                                   inkscape:connector-curvature="0" /></g></g></g></g></g></g></g></g></g></g></g></g></g></g></g></g></g><g
       id="g354"><g
         id="g356"
         clip-path="url(#clipPath360)"><g
           id="g362"><g
             id="g364"><g
               id="g366"
               clip-path="url(#clipPath370)"><g
                 id="g372" /><g
                 id="g374"><g
                   id="g376"
                   clip-path="url(#clipPath380)"><g
                     id="g382"
                     clip-path="url(#clipPath386)"><g
                       id="g388"><g
                         id="g390"><g
                           id="g392"
                           clip-path="url(#clipPath396)"><g
                             id="g398" /><g
                             id="g400"><g
                               id="g402"
                               clip-path="url(#clipPath406)"><g
                                 id="g408"><g
                                   id="g410"><g
                                   id="g412"
                                   clip-path="url(#clipPath416)"><g
                                   id="g418"><path
                                   d="m 30.293,150.961 -2.481,5.793 0.27,0.113 0.273,-0.09 -0.824,-2.484 -0.047,-0.137 -0.14,-0.047 -2.481,-0.828 -0.093,0.278 0.117,0.269 5.789,-2.48 -0.114,-0.27 z m 0.152,-0.152 -5.789,2.48 -0.707,0.305 0.731,0.242 2.48,0.828 0.094,-0.277 -0.277,0.093 0.824,2.481 0.246,0.73 0.301,-0.707 2.484,-5.793 0.285,-0.671 -0.672,0.289"
                                   style="fill:#000000;fill-opacity:1;fill-rule:nonzero;stroke:none"
                                   id="path420"
                                   inkscape:connector-curvature="0" /></g></g></g></g></g></g></g></g></g></g></g></g></g></g></g></g></g><g
       id="g422"><g
         id="g424"
         clip-path="url(#clipPath428)"><g
           id="g430"><g
             id="g432"><g
               id="g434"
               clip-path="url(#clipPath438)"><g
                 id="g440" /><g
                 id="g442"><g
                   id="g444"
                   clip-path="url(#clipPath448)"><g
                     id="g450"
                     clip-path="url(#clipPath454)"><g
                       id="g456"><g
                         id="g458"><g
                           id="g460"
                           clip-path="url(#clipPath464)"><g
                             id="g466" /><g
                             id="g468"><g
                               id="g470"
                               clip-path="url(#clipPath474)"><g
                                 id="g476"><g
                                   id="g478"><g
                                   id="g480"
                                   clip-path="url(#clipPath484)"><g
                                   id="g486"><path
                                   d="m 30.562,151.078 -2.48,5.789 -0.828,-2.48 -2.484,-0.828"
                                   style="fill:#000000;fill-opacity:1;fill-rule:nonzero;stroke:none"
                                   id="path488"
                                   inkscape:connector-curvature="0" /></g></g></g></g></g></g></g></g></g></g></g></g></g></g></g></g></g><g
       id="g490"><g
         id="g492"
         clip-path="url(#clipPath496)"><g
           id="g498"><g
             id="g500"><g
               id="g502"
               clip-path="url(#clipPath506)"><g
                 id="g508" /><g
                 id="g510"><g
                   id="g512"
                   clip-path="url(#clipPath516)"><g
                     id="g518"
                     clip-path="url(#clipPath522)"><g
                       id="g524"><g
                         id="g526"><g
                           id="g528"
                           clip-path="url(#clipPath532)"><g
                             id="g534" /><g
                             id="g536"><g
                               id="g538"
                               clip-path="url(#clipPath542)"><g
                                 id="g544"><g
                                   id="g546"><g
                                   id="g548"
                                   clip-path="url(#clipPath552)"><g
                                   id="g554"><path
                                   d="m 80.953,63.473 4.137,-4.137 c 0.117,-0.113 0.117,-0.301 0,-0.414 -0.113,-0.113 -0.297,-0.113 -0.414,0 l -4.133,4.137 c -0.117,0.113 -0.117,0.3 0,0.414 0.113,0.113 0.297,0.113 0.41,0 z m 8.274,-8.274 4.136,-4.137 c 0.114,-0.113 0.114,-0.3 0,-0.414 -0.113,-0.113 -0.301,-0.113 -0.414,0 l -4.137,4.137 c -0.113,0.113 -0.113,0.301 0,0.414 0.118,0.113 0.301,0.113 0.415,0 z m 8.273,-8.273 4.137,-4.137 c 0.113,-0.113 0.113,-0.301 0,-0.414 -0.114,-0.113 -0.301,-0.113 -0.414,0 l -4.137,4.137 c -0.113,0.113 -0.113,0.3 0,0.414 0.117,0.113 0.301,0.113 0.414,0 z m 8.273,-8.274 4.137,-4.136 c 0.113,-0.114 0.113,-0.297 0,-0.414 -0.113,-0.114 -0.301,-0.114 -0.414,0 l -4.137,4.136 c -0.113,0.114 -0.113,0.301 0,0.414 0.114,0.114 0.301,0.114 0.414,0 z m 8.274,-8.273 4.137,-4.137 c 0.113,-0.113 0.113,-0.297 0,-0.414 -0.114,-0.113 -0.301,-0.113 -0.414,0 l -4.137,4.137 c -0.113,0.117 -0.113,0.301 0,0.414 0.113,0.113 0.301,0.113 0.414,0 z m 8.273,-8.274 4.137,-4.132 c 0.113,-0.118 0.113,-0.301 0,-0.414 -0.113,-0.118 -0.301,-0.118 -0.414,0 l -4.137,4.132 c -0.113,0.118 -0.113,0.301 0,0.414 0.114,0.118 0.301,0.118 0.414,0 z m -49.64,49.641 4.136,-4.137 c 0.118,-0.113 0.118,-0.3 0,-0.414 -0.113,-0.113 -0.296,-0.113 -0.41,0 l -4.14,4.137 c -0.114,0.113 -0.114,0.301 0,0.414 0.117,0.113 0.3,0.113 0.414,0"
                                   style="fill:#000000;fill-opacity:1;fill-rule:nonzero;stroke:none"
                                   id="path556"
                                   inkscape:connector-curvature="0" /></g></g></g></g></g></g></g></g></g></g></g></g></g></g></g></g></g><g
       id="g558"><g
         id="g560"
         clip-path="url(#clipPath564)"><g
           id="g566"><g
             id="g568"><g
               id="g570"
               clip-path="url(#clipPath574)"><g
                 id="g576" /><g
                 id="g578"><g
                   id="g580"
                   clip-path="url(#clipPath584)"><g
                     id="g586"
                     clip-path="url(#clipPath590)"><g
                       id="g592"><g
                         id="g594"><g
                           id="g596"
                           clip-path="url(#clipPath600)"><g
                             id="g602" /><g
                             id="g604"><g
                               id="g606"
                               clip-path="url(#clipPath610)"><g
                                 id="g612"><g
                                   id="g614"><g
                                   id="g616"
                                   clip-path="url(#clipPath620)"><g
                                   id="g622"><path
                                   d="m 102.625,41.391 -2.484,5.793 -0.829,-2.485 -2.48,-0.828"
                                   style="fill:#000000;fill-opacity:1;fill-rule:nonzero;stroke:none"
                                   id="path624"
                                   inkscape:connector-curvature="0" /></g></g></g></g></g></g></g></g></g></g></g></g></g></g></g></g></g><g
       id="g626"><g
         id="g628"
         clip-path="url(#clipPath632)"><g
           id="g634"><g
             id="g636"><g
               id="g638"
               clip-path="url(#clipPath642)"><g
                 id="g644" /><g
                 id="g646"><g
                   id="g648"
                   clip-path="url(#clipPath652)"><g
                     id="g654"
                     clip-path="url(#clipPath658)"><g
                       id="g660"><g
                         id="g662"><g
                           id="g664"
                           clip-path="url(#clipPath668)"><g
                             id="g670" /><g
                             id="g672"><g
                               id="g674"
                               clip-path="url(#clipPath678)"><g
                                 id="g680"><g
                                   id="g682"><g
                                   id="g684"
                                   clip-path="url(#clipPath688)"><g
                                   id="g690"><path
                                   d="m 102.355,41.277 -2.484,5.789 0.27,0.118 0.277,-0.094 -0.828,-2.485 -0.047,-0.136 -0.137,-0.047 -2.484,-0.828 -0.09,0.277 0.113,0.27 5.793,-2.481 -0.113,-0.269 z m 0.153,-0.156 -5.793,2.484 -0.707,0.301 0.73,0.242 2.481,0.829 0.093,-0.278 -0.277,0.094 0.828,2.48 0.242,0.731 0.305,-0.707 2.481,-5.793 0.289,-0.672 -0.672,0.289"
                                   style="fill:#000000;fill-opacity:1;fill-rule:nonzero;stroke:none"
                                   id="path692"
                                   inkscape:connector-curvature="0" /></g></g></g></g></g></g></g></g></g></g></g></g></g></g></g></g></g><g
       id="g694"><g
         id="g696"
         clip-path="url(#clipPath700)"><g
           id="g702"
           clip-path="url(#clipPath706)"><g
             id="g708"><g
               id="g710"><g
                 id="g712"
                 clip-path="url(#clipPath716)"><g
                   id="g718" /><g
                   id="g720"><g
                     id="g722"
                     clip-path="url(#clipPath726)"><g
                       id="g728"
                       clip-path="url(#clipPath732)"><g
                         id="g734"><g
                           id="g736"><g
                             id="g738"
                             clip-path="url(#clipPath742)"><g
                               id="g744" /><g
                               id="g746"><g
                                 id="g748"
                                 clip-path="url(#clipPath752)"><g
                                   id="g754"
                                   clip-path="url(#clipPath758)"><g
                                   id="g760"><g
                                   id="g762"><g
                                   id="g764"
                                   clip-path="url(#clipPath768)"><g
                                   id="g770"><path
                                   d="m 85.379,92.328 5.851,0.059 c 0.165,0.004 0.297,-0.129 0.297,-0.293 0,-0.16 -0.129,-0.289 -0.293,-0.293 l -5.843,-0.055 c -0.164,-0.004 -0.297,0.129 -0.297,0.289 -0.004,0.16 0.125,0.293 0.285,0.293 z m 11.699,0.113 5.852,0.055 c 0.16,0 0.293,-0.129 0.297,-0.289 0,-0.16 -0.133,-0.297 -0.289,-0.297 l -5.852,-0.055 c -0.16,-0.003 -0.293,0.129 -0.297,0.29 0.004,0.164 0.133,0.293 0.289,0.296 z m 11.703,0.11 5.848,0.054 c 0.16,0.004 0.297,-0.128 0.297,-0.289 0,-0.16 -0.129,-0.293 -0.289,-0.296 l -5.852,-0.055 c -0.16,0 -0.293,0.129 -0.297,0.293 0.004,0.16 0.133,0.293 0.293,0.293 z m 11.699,0.109 5.848,0.059 c 0.16,0 0.293,-0.129 0.297,-0.293 0.004,-0.156 -0.129,-0.293 -0.289,-0.293 l -5.852,-0.055 c -0.16,-0.004 -0.293,0.129 -0.293,0.289 -0.003,0.16 0.129,0.293 0.289,0.293 z m 11.7,0.113 5.851,0.055 c 0.16,0.004 0.289,-0.125 0.293,-0.289 0.004,-0.16 -0.129,-0.293 -0.289,-0.297 l -5.851,-0.054 c -0.161,0 -0.293,0.128 -0.293,0.289 -0.004,0.16 0.129,0.296 0.289,0.296 z m 11.699,0.11 5.848,0.062 c 0.164,-0.004 0.293,-0.133 0.296,-0.293 0.004,-0.164 -0.128,-0.297 -0.289,-0.297 l -5.847,-0.054 c -0.164,0 -0.297,0.129 -0.297,0.289 -0.004,0.164 0.125,0.297 0.289,0.293 z m -70.199,-0.664 5.851,0.054 c 0.16,0.004 0.297,-0.128 0.293,-0.289 0.004,-0.16 -0.125,-0.293 -0.285,-0.293 l -5.855,-0.058 c -0.157,-0.004 -0.293,0.129 -0.293,0.289 0,0.164 0.129,0.293 0.289,0.297"
                                   style="fill:#000000;fill-opacity:1;fill-rule:nonzero;stroke:none"
                                   id="path772"
                                   inkscape:connector-curvature="0" /></g></g></g></g></g></g></g></g></g></g></g></g></g></g></g></g></g></g></g><g
       id="g774"><g
         id="g776"
         clip-path="url(#clipPath780)"><g
           id="g782"
           clip-path="url(#clipPath786)"><g
             id="g788"><g
               id="g790"><g
                 id="g792"
                 clip-path="url(#clipPath796)"><g
                   id="g798" /><g
                   id="g800"><g
                     id="g802"
                     clip-path="url(#clipPath806)"><g
                       id="g808"
                       clip-path="url(#clipPath812)"><g
                         id="g814"><g
                           id="g816"><g
                             id="g818"
                             clip-path="url(#clipPath822)"><g
                               id="g824" /><g
                               id="g826"><g
                                 id="g828"
                                 clip-path="url(#clipPath832)"><g
                                   id="g834"
                                   clip-path="url(#clipPath838)"><g
                                   id="g840"><g
                                   id="g842"><g
                                   id="g844"
                                   clip-path="url(#clipPath848)"><g
                                   id="g850"><path
                                   d="m 116.32,92.332 -5.875,2.285 1.192,-2.332 -1.145,-2.351"
                                   style="fill:#000000;fill-opacity:1;fill-rule:nonzero;stroke:none"
                                   id="path852"
                                   inkscape:connector-curvature="0" /></g></g></g></g></g></g></g></g></g></g></g></g></g></g></g></g></g></g></g><g
       id="g854"><g
         id="g856"
         clip-path="url(#clipPath860)"><g
           id="g862"
           clip-path="url(#clipPath866)"><g
             id="g868"><g
               id="g870"><g
                 id="g872"
                 clip-path="url(#clipPath876)"><g
                   id="g878" /><g
                   id="g880"><g
                     id="g882"
                     clip-path="url(#clipPath886)"><g
                       id="g888"
                       clip-path="url(#clipPath892)"><g
                         id="g894"><g
                           id="g896"><g
                             id="g898"
                             clip-path="url(#clipPath902)"><g
                               id="g904" /><g
                               id="g906"><g
                                 id="g908"
                                 clip-path="url(#clipPath912)"><g
                                   id="g914"
                                   clip-path="url(#clipPath918)"><g
                                   id="g920"><g
                                   id="g922"><g
                                   id="g924"
                                   clip-path="url(#clipPath928)"><g
                                   id="g930"><path
                                   d="m 116.211,92.062 -5.871,2.282 0.105,0.273 0.262,0.133 1.191,-2.332 0.067,-0.129 -0.063,-0.129 -1.148,-2.355 -0.262,0.129 -0.113,0.269 5.828,2.399 0.113,-0.27 z m 0.219,0 -5.828,-2.398 -0.711,-0.293 0.339,0.691 1.145,2.352 0.262,-0.129 -0.258,-0.133 -1.191,2.328 -0.352,0.684 0.719,-0.277 5.871,-2.285 0.679,-0.266 -0.675,-0.274"
                                   style="fill:#000000;fill-opacity:1;fill-rule:nonzero;stroke:none"
                                   id="path932"
                                   inkscape:connector-curvature="0" /></g></g></g></g></g></g></g></g></g></g></g></g></g></g></g></g></g></g></g><path
       d="m 4.664,27.309 0.031,-0.09 0.035,-0.09 0.036,-0.086 0.039,-0.086 0.078,-0.156 0.043,-0.074 0.039,-0.075 0.047,-0.07 0.043,-0.066 0.047,-0.067 0.046,-0.062 0.098,-0.117 0.102,-0.11 0.101,-0.101 0.11,-0.094 0.105,-0.082 0.113,-0.078 0.11,-0.071 0.109,-0.062 0.109,-0.059 0.11,-0.051 L 6.324,25.52 6.426,25.48 6.531,25.445 6.633,25.418 6.82,25.371 6.992,25.34 7.141,25.324 7.207,25.316 7.262,25.312 7.309,25.309 h 0.097 c 2.598,0 2.789,3.015 2.789,4.379 0,1.054 -0.086,1.347 -0.203,1.691 -0.383,1.258 -0.902,3.258 -0.902,3.703 0,0.191 0.09,0.316 0.23,0.316 0.223,0 0.364,-0.382 0.551,-1.039 0.395,-1.449 0.567,-2.429 0.641,-2.961 0.031,-0.23 0.062,-0.449 0.133,-0.679 0.55,-1.703 1.656,-4.27 2.347,-5.633 0.117,-0.203 0.324,-0.59 0.324,-0.656 0,-0.172 -0.168,-0.172 -0.207,-0.172 -0.047,0 -0.156,0 -0.203,0.121 -0.898,1.637 -1.586,3.359 -2.277,5.105 C 10.609,28.949 10.598,27.641 9.918,25.961 9.512,24.914 8.816,24.07 7.629,24.07 c -2.152,0 -3.363,2.618 -3.363,3.153 0,0.172 0.152,0.172 0.328,0.172 z"
       style="fill:#000000;fill-opacity:1;fill-rule:evenodd;stroke:none"
       id="path936"
       inkscape:connector-curvature="0" /><path
       d="m 6.016,159.461 -0.012,0.051 -0.016,0.05 -0.008,0.051 -0.011,0.043 -0.016,0.047 -0.008,0.035 -0.015,0.043 -0.008,0.035 -0.016,0.036 -0.011,0.031 -0.016,0.031 -0.016,0.027 -0.019,0.024 -0.016,0.023 -0.023,0.024 -0.02,0.023 -0.047,0.031 -0.027,0.016 -0.031,0.016 -0.032,0.011 -0.035,0.012 -0.039,0.008 -0.086,0.016 -0.019,0.003 -0.028,0.004 -0.023,0.004 -0.027,0.004 H 5.312 l -0.031,0.004 H 5.156 l -0.035,0.004 H 5.086 c -0.207,0 -0.395,0 -0.395,0.324 0,0.141 0.086,0.211 0.223,0.211 0.469,0 0.965,-0.055 1.445,-0.055 0.567,0 1.161,0.055 1.711,0.055 0.086,0 0.309,0 0.309,-0.348 0,-0.187 -0.176,-0.187 -0.414,-0.187 -0.863,0 -0.863,-0.125 -0.863,-0.277 0,-0.211 0.726,-3.016 0.851,-3.45 0.219,0.5 0.703,1.106 1.582,1.106 L 9.52,157.164 c -1.141,0 -1.364,-1.434 -1.364,-1.531 0,-0.035 0,-0.074 0.047,-0.278 l 0.852,-3.382 c 0.117,-0.465 0.582,-0.946 0.89,-1.203 0.606,-0.536 1.11,-0.657 1.403,-0.657 0.683,0 1.101,0.602 1.101,1.625 0,1.016 -0.566,2.992 -0.879,3.657 -0.586,1.203 -1.414,1.769 -2.05,1.769 l 0.015,0.383 c 2.004,0 4.156,-2.516 4.156,-5.055 0,-1.621 -0.98,-2.754 -2.296,-2.754 -0.856,0 -1.684,0.617 -2.254,1.289 -0.172,-0.929 -0.914,-1.289 -1.551,-1.289 -0.797,0 -1.125,0.668 -1.278,0.977 -0.312,0.59 -0.535,1.621 -0.535,1.676 0,0.175 0.176,0.175 0.207,0.175 0.172,0 0.188,-0.027 0.289,-0.402 0.297,-1.223 0.641,-2.051 1.262,-2.051 0.293,0 0.535,0.137 0.535,0.789 0,0.403 -0.05,0.59 -0.117,0.883 z"
       style="fill:#000000;fill-opacity:1;fill-rule:evenodd;stroke:none"
       id="path938"
       inkscape:connector-curvature="0" /><g
       id="g942"><path
         d="m 77.949,91.43 c 0,21.453 -7.543,38.843 -16.851,38.843 -9.305,0 -16.848,-17.39 -16.848,-38.843 0,-21.457 7.543,-38.848 16.848,-38.848 9.308,0 16.851,17.391 16.851,38.848 z"
         style="fill:#b2b2b2;fill-opacity:1;fill-rule:nonzero;stroke:#000000;stroke-width:0.75;stroke-linecap:butt;stroke-linejoin:round;stroke-miterlimit:4;stroke-dasharray:none;stroke-opacity:1"
         id="path944"
         inkscape:connector-curvature="0" /></g><path
       d="m 130.367,78.293 h 1.61 c -0.469,2.105 -0.602,2.719 -0.602,3.672 0,0.211 0,0.594 0.117,1.082 0.145,0.625 0.301,0.711 0.516,0.711 0.277,0 0.578,-0.254 0.578,-0.539 0,-0.086 0,-0.117 -0.086,-0.317 -0.41,-1.023 -0.41,-1.949 -0.41,-2.347 0,-0.754 0.101,-1.528 0.254,-2.262 h 1.625 c 0.183,0 0.699,0 0.699,-0.488 0,-0.34 -0.301,-0.34 -0.57,-0.34 h -4.77 c -0.312,0 -0.851,0 -1.48,0.672 -0.5,0.551 -0.871,1.207 -0.871,1.281 0,0.012 0,0.137 0.171,0.137 0.114,0 0.145,-0.051 0.227,-0.168 0.703,-1.094 1.527,-1.094 1.809,-1.094 H 130 c -0.461,1.719 -1.227,3.441 -1.824,4.734 -0.117,0.215 -0.117,0.246 -0.117,0.344 0,0.274 0.226,0.387 0.418,0.387 0.425,0 0.539,-0.399 0.707,-0.926 0.203,-0.656 0.203,-0.684 0.386,-1.398 z"
       style="fill:#000000;fill-opacity:1;fill-rule:evenodd;stroke:none"
       id="path946"
       inkscape:connector-curvature="0" /><g
       inkscape:label=""
       transform="matrix(1.4808646,0,0,1.4808646,-38.254865,-93.743225)"
       id="g11914"><g
         id="g8655"><g
           style="fill:#000000;fill-opacity:1"
           id="g966"><g
             id="use3591"
             transform="translate(91.925003,81.962997)"><path
               style="stroke:none"
               d="M 5.078125,-4.03125 C 5.0625,-4.0625 5.03125,-4.140625 5.03125,-4.171875 c 0,0 0.171875,-0.140625 0.28125,-0.21875 l 1.75,-1.34375 C 8,-6.4375 8.390625,-6.46875 8.6875,-6.5 8.765625,-6.515625 8.859375,-6.515625 8.859375,-6.703125 8.859375,-6.734375 8.828125,-6.8125 8.75,-6.8125 c -0.21875,0 -0.46875,0.03125 -0.703125,0.03125 -0.359375,0 -0.75,-0.03125 -1.109375,-0.03125 -0.0625,0 -0.1875,0 -0.1875,0.203125 0,0.0625 0.046875,0.09375 0.125,0.109375 0.21875,0.015625 0.296875,0.0625 0.296875,0.203125 0,0.1875 -0.296875,0.421875 -0.359375,0.46875 L 2.9375,-2.84375 3.734375,-6.046875 C 3.8125,-6.40625 3.84375,-6.5 4.5625,-6.5 c 0.25,0 0.34375,0 0.34375,-0.203125 0,-0.078125 -0.078125,-0.109375 -0.140625,-0.109375 -0.28125,0 -1,0.03125 -1.28125,0.03125 C 3.203125,-6.78125 2.5,-6.8125 2.203125,-6.8125 2.140625,-6.8125 2,-6.8125 2,-6.625 2,-6.5 2.09375,-6.5 2.296875,-6.5 c 0.125,0 0.3125,0.015625 0.421875,0.015625 0.15625,0.03125 0.21875,0.046875 0.21875,0.171875 0,0.03125 0,0.0625 -0.03125,0.1875 L 1.5625,-0.78125 c -0.09375,0.390625 -0.109375,0.46875 -0.90625,0.46875 -0.171875,0 -0.28125,0 -0.28125,0.1875 C 0.375,0 0.5,0 0.53125,0 0.8125,0 1.515625,-0.03125 1.796875,-0.03125 2,-0.03125 2.21875,-0.015625 2.4375,-0.015625 2.65625,-0.015625 2.875,0 3.078125,0 3.15625,0 3.28125,0 3.28125,-0.203125 3.28125,-0.3125 3.1875,-0.3125 3,-0.3125 c -0.375,0 -0.640625,0 -0.640625,-0.171875 0,-0.078125 0.046875,-0.296875 0.078125,-0.4375 C 2.578125,-1.453125 2.71875,-1.96875 2.84375,-2.5 l 1.484375,-1.15625 1.15625,2.6875 c 0.125,0.265625 0.125,0.296875 0.125,0.34375 0,0.3125 -0.4375,0.3125 -0.53125,0.3125 -0.109375,0 -0.21875,0 -0.21875,0.203125 C 4.859375,0 4.984375,0 5,0 5.40625,0 5.828125,-0.03125 6.21875,-0.03125 6.4375,-0.03125 6.984375,0 7.203125,0 7.25,0 7.375,0 7.375,-0.203125 7.375,-0.3125 7.265625,-0.3125 7.171875,-0.3125 c -0.40625,0 -0.53125,-0.09375 -0.6875,-0.4375 z m 0,0"
               id="path14666" /></g></g></g></g><text
       style="font-variant:normal;font-weight:normal;font-size:14.543px;font-family:Symbola;-inkscape-font-specification:Symbola;writing-mode:lr-tb;fill:#000000;fill-opacity:1;fill-rule:nonzero;stroke:none;stroke-width:0.999997"
       id="text4490"
       x="92.592087"
       y="159.40604"><tspan
         x="92.592087"
         y="159.40604"
         id="tspan4488"
         style="stroke-width:0.999997"></tspan></text></g></svg>
